<svg xmlns="http://www.w3.org/2000/svg" viewBox="0 0 256 256" role="img" aria-labelledby="title desc">
  <title>Random Heart Move Effect icon</title>
  <desc>A heart icon with motion trails on a warm gradient background.</desc>
  <defs>
    <linearGradient id="bg" x1="0%" y1="0%" x2="100%" y2="100%">
      <stop offset="0%" stop-color="#fff4f7"/>
      <stop offset="55%" stop-color="#ffd7e4"/>
      <stop offset="100%" stop-color="#f5a4bf"/>
    </linearGradient>
    <linearGradient id="heart" x1="0%" y1="0%" x2="100%" y2="100%">
      <stop offset="0%" stop-color="#ff4d88"/>
      <stop offset="100%" stop-color="#d81b60"/>
    </linearGradient>
    <filter id="shadow" x="-20%" y="-20%" width="140%" height="140%">
      <feDropShadow dx="0" dy="8" stdDeviation="10" flood-color="#b84b73" flood-opacity="0.28"/>
    </filter>
  </defs>
  <rect x="8" y="8" width="240" height="240" rx="56" fill="url(#bg)"/>
  <g opacity="0.45" fill="none" stroke="#ffffff" stroke-linecap="round">
    <path d="M58 102C83 80 108 82 125 93" stroke-width="14"/>
    <path d="M45 135C69 114 93 115 110 126" stroke-width="10"/>
  </g>
  <path
    filter="url(#shadow)"
    fill="url(#heart)"
    d="M128 197c-6-5-13-10-22-18-33-27-57-49-57-80 0-24 18-42 42-42 15 0 28 8 37 19 9-11 22-19 37-19 24 0 42 18 42 42 0 31-24 53-57 80-9 8-16 13-22 18z"
  />
  <circle cx="89" cy="93" r="8" fill="#fff7fb" opacity="0.9"/>
</svg>
